<svg width="43" height="43" viewBox="0 0 43 43" fill="none" xmlns="http://www.w3.org/2000/svg">
<path d="M28.6667 40.7603H14.3333C6.05583 40.7603 4.515 36.9082 4.12083 33.1637L2.77708 18.8124C2.58 16.9312 2.52625 14.1541 4.38958 12.0757C6.00208 10.2841 8.67167 9.42407 12.5417 9.42407H30.4583C34.3463 9.42407 37.0158 10.302 38.6104 12.0757C40.4738 14.1541 40.42 16.9312 40.2229 18.8303L38.8792 33.1457C38.485 36.9082 36.9442 40.7603 28.6667 40.7603ZM12.5417 12.0937C9.51375 12.0937 7.43542 12.6849 6.37833 13.8674C5.50042 14.8349 5.21375 16.322 5.44667 18.5437L6.79042 32.8949C7.095 35.7257 7.86542 38.0728 14.3333 38.0728H28.6667C35.1167 38.0728 35.905 35.7257 36.2096 32.877L37.5533 18.5616C37.7862 16.322 37.4996 14.8349 36.6217 13.8674C35.5646 12.6849 33.4863 12.0937 30.4583 12.0937H12.5417Z" fill="white"/>
<path d="M28.6668 12.0937C27.9322 12.0937 27.3231 11.4845 27.3231 10.7499V9.31659C27.3231 6.12742 27.3231 4.927 22.9335 4.927H20.0668C15.6772 4.927 15.6772 6.12742 15.6772 9.31659V10.7499C15.6772 11.4845 15.0681 12.0937 14.3335 12.0937C13.5989 12.0937 12.9897 11.4845 12.9897 10.7499V9.31659C12.9897 6.16325 12.9897 2.2395 20.0668 2.2395H22.9335C30.0106 2.2395 30.0106 6.16325 30.0106 9.31659V10.7499C30.0106 11.4845 29.4014 12.0937 28.6668 12.0937Z" fill="white"/>
<path d="M21.4998 30.0104C16.5728 30.0104 16.5728 26.9646 16.5728 25.1371V23.2917C16.5728 20.7654 17.1819 20.1562 19.7082 20.1562H23.2915C25.8178 20.1562 26.4269 20.7654 26.4269 23.2917V25.0833C26.4269 26.9467 26.4269 30.0104 21.4998 30.0104ZM19.2603 22.8437C19.2603 22.9871 19.2603 23.1483 19.2603 23.2917V25.1371C19.2603 26.9825 19.2603 27.3229 21.4998 27.3229C23.7394 27.3229 23.7394 27.0363 23.7394 25.1192V23.2917C23.7394 23.1483 23.7394 22.9871 23.7394 22.8437C23.5961 22.8437 23.4348 22.8437 23.2915 22.8437H19.7082C19.5648 22.8437 19.4036 22.8437 19.2603 22.8437Z" fill="white"/>
<path d="M25.0834 26.463C24.4205 26.463 23.8293 25.9614 23.7576 25.2805C23.668 24.5459 24.1876 23.8651 24.9222 23.7755C29.6522 23.1843 34.1851 21.3926 38.0013 18.6155C38.5926 18.1676 39.4347 18.3109 39.8826 18.9201C40.3126 19.5114 40.1872 20.3534 39.578 20.8014C35.3855 23.8472 30.4405 25.8001 25.2447 26.463C25.1909 26.463 25.1372 26.463 25.0834 26.463Z" fill="white"/>
<path d="M17.9165 26.4809C17.8627 26.4809 17.809 26.4809 17.7552 26.4809C12.8461 25.9255 8.06233 24.1339 3.92358 21.303C3.31441 20.8909 3.15316 20.0489 3.56525 19.4397C3.97733 18.8305 4.81941 18.6693 5.42858 19.0814C9.209 21.6614 13.5627 23.2918 18.0419 23.8114C18.7765 23.9009 19.314 24.5639 19.2244 25.2984C19.1707 25.9793 18.5973 26.4809 17.9165 26.4809Z" fill="white"/>
</svg>
