<svg width="43" height="43" viewBox="0 0 43 43" fill="none" xmlns="http://www.w3.org/2000/svg">
<path d="M31.8739 40.7605H11.1264C6.21725 40.7605 2.23975 36.7651 2.23975 31.8559V18.5797C2.23975 16.143 3.74475 13.0793 5.67975 11.5743L15.3368 4.04928C18.2393 1.79178 22.8797 1.68428 25.8897 3.79845L36.9622 11.5564C39.0943 13.0434 40.7606 16.2326 40.7606 18.8305V31.8739C40.7606 36.7651 36.7831 40.7605 31.8739 40.7605ZM16.9852 6.16345L7.32808 13.6884C6.056 14.6918 4.92725 16.9672 4.92725 18.5797V31.8559C4.92725 35.278 7.70433 38.073 11.1264 38.073H31.8739C35.296 38.073 38.0731 35.2959 38.0731 31.8739V18.8305C38.0731 17.1105 36.8368 14.7276 35.4214 13.7601L24.3489 6.0022C22.3064 4.56887 18.9381 4.64053 16.9852 6.16345Z" fill="white"/>
<path d="M21.5 33.5937C20.7654 33.5937 20.1562 32.9846 20.1562 32.25V26.875C20.1562 26.1404 20.7654 25.5312 21.5 25.5312C22.2346 25.5312 22.8437 26.1404 22.8437 26.875V32.25C22.8437 32.9846 22.2346 33.5937 21.5 33.5937Z" fill="white"/>
</svg>
