<svg width="43" height="43" viewBox="0 0 43 43" fill="none" xmlns="http://www.w3.org/2000/svg">
<path d="M30.4585 38.0728H12.5418C6.00225 38.0728 2.23975 34.3103 2.23975 27.7708V15.2291C2.23975 8.6895 6.00225 4.927 12.5418 4.927H30.4585C36.9981 4.927 40.7606 8.6895 40.7606 15.2291V27.7708C40.7606 34.3103 36.9981 38.0728 30.4585 38.0728ZM12.5418 7.6145C7.41766 7.6145 4.92725 10.1049 4.92725 15.2291V27.7708C4.92725 32.8949 7.41766 35.3853 12.5418 35.3853H30.4585C35.5827 35.3853 38.0731 32.8949 38.0731 27.7708V15.2291C38.0731 10.1049 35.5827 7.6145 30.4585 7.6145H12.5418Z" fill="white"/>
<path d="M21.4998 23.0587C19.9948 23.0587 18.4719 22.5929 17.3073 21.6433L11.6994 17.1641C11.1261 16.6983 11.0186 15.8562 11.4844 15.2829C11.9502 14.7095 12.7923 14.602 13.3657 15.0679L18.9735 19.547C20.3352 20.64 22.6465 20.64 24.0081 19.547L29.6161 15.0679C30.1894 14.602 31.0494 14.6916 31.4973 15.2829C31.9631 15.8562 31.8736 16.7162 31.2823 17.1641L25.6744 21.6433C24.5277 22.5929 23.0048 23.0587 21.4998 23.0587Z" fill="white"/>
</svg>
