<svg width="43" height="43" viewBox="0 0 43 43" fill="none" xmlns="http://www.w3.org/2000/svg">
<path d="M21.4998 22.8437C15.8203 22.8437 11.1978 18.2212 11.1978 12.5416C11.1978 6.862 15.8203 2.2395 21.4998 2.2395C27.1794 2.2395 31.8019 6.862 31.8019 12.5416C31.8019 18.2212 27.1794 22.8437 21.4998 22.8437ZM21.4998 4.927C17.3073 4.927 13.8853 8.34909 13.8853 12.5416C13.8853 16.7341 17.3073 20.1562 21.4998 20.1562C25.6923 20.1562 29.1144 16.7341 29.1144 12.5416C29.1144 8.34909 25.6923 4.927 21.4998 4.927Z" fill="white"/>
<path d="M36.8907 40.7604C36.1561 40.7604 35.5469 40.1513 35.5469 39.4167C35.5469 33.2354 29.2403 28.2188 21.5003 28.2188C13.7603 28.2188 7.45361 33.2354 7.45361 39.4167C7.45361 40.1513 6.84445 40.7604 6.10986 40.7604C5.37528 40.7604 4.76611 40.1513 4.76611 39.4167C4.76611 31.7663 12.2732 25.5312 21.5003 25.5312C30.7274 25.5312 38.2344 31.7663 38.2344 39.4167C38.2344 40.1513 37.6253 40.7604 36.8907 40.7604Z" fill="white"/>
</svg>
