<svg width="400" height="176" viewBox="0 0 400 176" fill="none" xmlns="http://www.w3.org/2000/svg">
<path d="M0 0H400V176H0V0Z" fill="#1A1A1A"/>
<path d="M67.951 79.9705C56.0315 87.603 50.119 93.3275 48.9325 95.8362C47.4069 98.8873 50.5596 110.176 50.5596 108.041C50.5596 105.905 56.5601 99.4975 57.6788 98.4805C58.5738 97.6668 66.2761 91.8649 70.0053 89.3224L82.108 82.1014L97.2415 74.2751C97.75 73.8005 98.6857 72.4851 98.3602 71.0206C97.4584 71.2918 95.61 71.2647 95.4311 68.9865C95.3193 67.5627 96.1228 66.7491 96.9364 66.3422C96.5635 66.1093 95.5329 65.7169 94.3938 65.8337C89.5795 68.0197 78.8352 73.0008 67.951 79.9705Z" fill="#058C42"/>
<path d="M96.428 113.43C99.7639 123.519 99.4452 129.16 98.8689 130.72C95.2754 129.804 87.3357 127.608 84.3253 126.143C80.5623 124.312 70.4937 118.312 65.1034 112.617C60.7912 108.06 58.2893 104.345 57.5773 103.056C63.1032 98.4321 76.189 88.3027 84.3253 84.78C91.5755 96.4523 95.1849 109.362 95.1059 109.362C95.0066 109.362 76.6093 107.039 76.0921 106.925C81.7908 112.007 96.3263 113.329 96.428 113.43Z" fill="#058C42"/>
<path d="M56.4586 42.238C56.7637 42.5431 74.155 71.7319 74.2567 72.037C67.4087 76.2407 53.0617 85.5432 50.4581 89.1232C50.5598 89.1232 47.5087 82.8176 47.1019 75.3932C46.6951 67.9689 47.6104 54.3406 48.0172 51.493C48.3427 49.2148 50.2547 38.8818 51.17 34C55.1365 35.0509 63.5778 37.3562 65.6119 38.1698C68.1545 39.1869 79.8503 42.5431 95.0041 54.1372C93.1735 55.934 89.4918 60.5445 89.4104 64.6127C89.3291 64.6127 85.3084 66.6467 83.3083 67.6638C83.5117 62.7142 83.8574 52.5507 83.6134 51.493C83.3693 50.4352 81.6132 62.443 80.7657 68.5791L78.3248 70.3081C77.8163 67.7655 56.5603 42.238 56.4586 42.238Z" fill="#058C42"/>
<path d="M104.971 129.906C104.768 124.414 102.022 112.718 101.92 112.617C108.519 106.13 111.612 98.8435 113.077 93.5981C114.029 93.4354 120.952 92.3099 124.295 91.7674C124.457 92.9879 123.752 98.0391 123.379 100.412C122.159 107.226 119.311 111.701 116.565 117.092C113.898 122.327 104.869 129.804 104.971 129.906Z" fill="#058C42"/>
<path d="M111.704 93.5981C106.289 105.69 100.119 108.345 100.293 108.345C97.7867 99.9065 92.4596 90.9127 87.8849 83.3261L91.0377 81.5971C93.8854 88.9197 100.801 91.3606 102.937 92.276C104.646 93.0082 109.493 93.4625 111.704 93.5981Z" fill="#058C42"/>
<path d="M99.886 53.6292C103.547 49.7238 108.192 46.9168 110.056 46.0015C108.904 47.2219 106.619 50.8425 106.7 55.5616C106.802 61.4604 107.819 69.9017 108.938 71.3256C110.056 72.7494 110.565 79.4618 121.549 82.2078C130.01 84.0792 147.381 87.7337 155.009 89.327C156.941 89.8695 161.355 90.6288 163.552 89.327C163.45 89.327 165.078 90.5475 155.009 94.819C151.856 96.0395 150.229 97.2599 146.568 95.7343C145.042 95.0987 143.72 94.819 142.296 94.0054C140.16 89.327 136.906 87.6998 131.211 87.6998C127.041 87.6998 122.566 90.1407 112.395 90.1407C106.497 90.2424 102.53 88.6151 99.174 86.8862C96.4891 85.503 94.8686 81.5637 94.394 79.7669C95.5127 79.1906 98.035 77.7532 99.174 76.6141C100.598 75.1903 102.327 71.6307 102.327 67.5626C102.327 63.4944 98.7672 62.6808 96.8349 62.5791C95.289 62.4977 93.8855 63.2232 93.377 63.5961C93.8855 59.8331 95.3093 58.511 99.886 53.6292Z" fill="#058C42"/>
<path d="M127.04 99.3954C130.132 98.5004 135.516 95.1917 137.821 93.8018C138.228 94.5137 138.757 95.7341 139.652 96.5477C140.994 97.7682 144.432 98.853 146.161 99.3954C145.754 99.904 137.923 104.175 136.702 104.786L123.277 111.498C124.905 109.708 126.837 102.853 127.04 99.3954Z" fill="#058C42"/>
<path d="M110.463 56.1714L111.887 68.8843C112.516 74.4983 117.776 77.5969 120.328 78.4444C131.109 81.0209 153.89 86.3976 158.772 87.2926C163.654 88.1876 165.959 83.733 166.501 81.3938C166.366 77.8342 165.973 69.4742 165.484 64.5111C164.996 59.548 160.806 57.1546 158.772 56.5782L143.415 52.0016C138.16 50.5099 126.634 47.2419 122.566 46.1028C117.48 44.679 115.65 45.5943 112.904 47.5267C110.707 49.0725 110.361 53.934 110.463 56.1714Z" fill="#058C42"/>
<path d="M52.7972 109.159C52.8786 108.101 54.1872 106.345 54.8313 105.599L58.3909 109.159C59.3062 111.803 66.2898 118.821 70.0868 122.075C55.5432 118.617 53.3057 113.329 52.7972 112.617C52.2887 111.905 52.6955 110.481 52.7972 109.159Z" fill="#058C42"/>
<path d="M123.243 111.047H138.903V112.439H124.635V132.275H139.483V133.667H123.243V111.047ZM127.129 114.063H138.903V115.455H128.521V119.921H137.424V121.313H127.129V114.063ZM127.129 122.85H137.424V124.242H128.521V129.259H139.483V130.651H127.129V122.85ZM161.45 129.723C160.734 131.115 159.623 132.217 158.115 133.029C156.626 133.841 154.915 134.247 152.982 134.247C150.816 134.247 148.912 133.764 147.269 132.797C145.645 131.811 144.369 130.429 143.441 128.65C142.532 126.852 142.078 124.735 142.078 122.299C142.078 119.902 142.532 117.814 143.441 116.035C144.369 114.257 145.645 112.884 147.269 111.917C148.912 110.931 150.807 110.438 152.953 110.438C154.325 110.438 155.572 110.632 156.694 111.018C157.815 111.405 158.772 111.937 159.565 112.613C160.357 113.29 160.937 114.063 161.305 114.933L160.348 115.803C159.516 114.315 158.463 113.28 157.187 112.7C155.911 112.12 154.499 111.83 152.953 111.83C151.058 111.83 149.395 112.265 147.965 113.135C146.553 114.005 145.451 115.223 144.659 116.789C143.866 118.355 143.47 120.192 143.47 122.299C143.47 124.445 143.866 126.311 144.659 127.896C145.451 129.482 146.563 130.709 147.994 131.579C149.424 132.449 151.087 132.884 152.982 132.884C154.49 132.884 155.872 132.585 157.129 131.985C158.405 131.386 159.545 130.323 160.551 128.795L161.45 129.723ZM159.304 127.548C158.55 128.708 157.651 129.569 156.607 130.129C155.563 130.671 154.509 130.941 153.446 130.941C152.17 130.941 150.99 130.622 149.908 129.984C148.844 129.346 147.994 128.389 147.356 127.113C146.718 125.837 146.399 124.233 146.399 122.299C146.399 120.443 146.718 118.877 147.356 117.601C147.994 116.325 148.844 115.368 149.908 114.73C150.971 114.073 152.141 113.744 153.417 113.744C154.441 113.744 155.466 114.015 156.491 114.556C157.515 115.078 158.356 115.91 159.014 117.05L157.999 117.978C157.767 117.456 157.409 116.983 156.926 116.557C156.462 116.113 155.92 115.765 155.302 115.513C154.683 115.262 154.055 115.136 153.417 115.136C152.373 115.136 151.425 115.417 150.575 115.977C149.724 116.538 149.047 117.35 148.545 118.413C148.042 119.477 147.791 120.772 147.791 122.299C147.791 123.885 148.042 125.219 148.545 126.301C149.047 127.384 149.724 128.196 150.575 128.737C151.425 129.279 152.382 129.549 153.446 129.549C154.084 129.549 154.712 129.424 155.331 129.172C155.969 128.902 156.549 128.544 157.071 128.099C157.593 127.635 157.989 127.104 158.26 126.504L159.304 127.548ZM173.899 134.247C171.811 134.247 169.984 133.764 168.418 132.797C166.852 131.831 165.634 130.458 164.764 128.679C163.894 126.881 163.459 124.755 163.459 122.299C163.459 119.902 163.894 117.814 164.764 116.035C165.634 114.257 166.852 112.884 168.418 111.917C169.984 110.931 171.811 110.438 173.899 110.438C175.987 110.438 177.805 110.931 179.351 111.917C180.917 112.903 182.126 114.286 182.976 116.064C183.827 117.843 184.252 119.921 184.252 122.299C184.252 124.755 183.827 126.881 182.976 128.679C182.126 130.458 180.917 131.831 179.351 132.797C177.805 133.764 175.987 134.247 173.899 134.247ZM173.899 132.884C175.736 132.884 177.321 132.449 178.655 131.579C179.989 130.709 181.024 129.482 181.758 127.896C182.493 126.311 182.86 124.445 182.86 122.299C182.86 120.211 182.493 118.384 181.758 116.818C181.024 115.252 179.989 114.034 178.655 113.164C177.321 112.275 175.736 111.83 173.899 111.83C172.063 111.83 170.468 112.265 169.114 113.135C167.761 114.005 166.707 115.223 165.953 116.789C165.219 118.355 164.851 120.192 164.851 122.299C164.851 124.445 165.219 126.311 165.953 127.896C166.707 129.482 167.761 130.709 169.114 131.579C170.468 132.449 172.063 132.884 173.899 132.884ZM173.899 131.115C172.739 131.115 171.666 130.777 170.68 130.1C169.714 129.424 168.94 128.438 168.36 127.142C167.78 125.828 167.49 124.213 167.49 122.299C167.49 120.366 167.8 118.761 168.418 117.485C169.037 116.19 169.83 115.223 170.796 114.585C171.782 113.928 172.817 113.599 173.899 113.599C175.059 113.599 176.113 113.928 177.06 114.585C178.027 115.223 178.791 116.19 179.351 117.485C179.931 118.761 180.221 120.366 180.221 122.299C180.221 124.213 179.922 125.828 179.322 127.142C178.723 128.438 177.94 129.424 176.973 130.1C176.026 130.777 175.001 131.115 173.899 131.115ZM173.899 129.723C174.808 129.723 175.63 129.433 176.364 128.853C177.118 128.273 177.718 127.432 178.162 126.33C178.607 125.209 178.829 123.865 178.829 122.299C178.829 119.941 178.365 118.133 177.437 116.876C176.509 115.62 175.33 114.991 173.899 114.991C173.01 114.991 172.179 115.272 171.405 115.832C170.651 116.393 170.042 117.215 169.578 118.297C169.114 119.38 168.882 120.714 168.882 122.299C168.882 123.865 169.095 125.209 169.52 126.33C169.965 127.432 170.564 128.273 171.318 128.853C172.092 129.433 172.952 129.723 173.899 129.723ZM206.479 129.723C205.764 131.115 204.652 132.217 203.144 133.029C201.655 133.841 199.944 134.247 198.011 134.247C195.846 134.247 193.941 133.764 192.298 132.797C190.674 131.811 189.398 130.429 188.47 128.65C187.561 126.852 187.107 124.735 187.107 122.299C187.107 119.902 187.561 117.814 188.47 116.035C189.398 114.257 190.674 112.884 192.298 111.917C193.941 110.931 195.836 110.438 197.982 110.438C199.355 110.438 200.602 110.632 201.723 111.018C202.844 111.405 203.801 111.937 204.594 112.613C205.387 113.29 205.967 114.063 206.334 114.933L205.377 115.803C204.546 114.315 203.492 113.28 202.216 112.7C200.94 112.12 199.529 111.83 197.982 111.83C196.087 111.83 194.425 112.265 192.994 113.135C191.583 114.005 190.481 115.223 189.688 116.789C188.895 118.355 188.499 120.192 188.499 122.299C188.499 124.445 188.895 126.311 189.688 127.896C190.481 129.482 191.592 130.709 193.023 131.579C194.454 132.449 196.116 132.884 198.011 132.884C199.519 132.884 200.901 132.585 202.158 131.985C203.434 131.386 204.575 130.323 205.58 128.795L206.479 129.723ZM204.333 127.548C203.579 128.708 202.68 129.569 201.636 130.129C200.592 130.671 199.538 130.941 198.475 130.941C197.199 130.941 196.02 130.622 194.937 129.984C193.874 129.346 193.023 128.389 192.385 127.113C191.747 125.837 191.428 124.233 191.428 122.299C191.428 120.443 191.747 118.877 192.385 117.601C193.023 116.325 193.874 115.368 194.937 114.73C196 114.073 197.17 113.744 198.446 113.744C199.471 113.744 200.495 114.015 201.52 114.556C202.545 115.078 203.386 115.91 204.043 117.05L203.028 117.978C202.796 117.456 202.438 116.983 201.955 116.557C201.491 116.113 200.95 115.765 200.331 115.513C199.712 115.262 199.084 115.136 198.446 115.136C197.402 115.136 196.455 115.417 195.604 115.977C194.753 116.538 194.077 117.35 193.574 118.413C193.071 119.477 192.82 120.772 192.82 122.299C192.82 123.885 193.071 125.219 193.574 126.301C194.077 127.384 194.753 128.196 195.604 128.737C196.455 129.279 197.412 129.549 198.475 129.549C199.113 129.549 199.741 129.424 200.36 129.172C200.998 128.902 201.578 128.544 202.1 128.099C202.622 127.635 203.018 127.104 203.289 126.504L204.333 127.548ZM220.35 112.439H215.652L208.547 133.667H207.097L214.637 111.047H221.365L228.905 133.667H227.397L220.35 112.439ZM217.102 114.73H218.784L222.264 125.315H213.622L217.102 114.73ZM220.35 123.923C220.253 123.614 220.098 123.15 219.886 122.531C219.673 121.913 219.441 121.226 219.19 120.472C218.938 119.699 218.706 118.935 218.494 118.181C218.281 117.408 218.126 116.722 218.03 116.122H217.856C217.759 116.702 217.604 117.379 217.392 118.152C217.198 118.906 216.976 119.67 216.725 120.443C216.473 121.197 216.241 121.893 216.029 122.531C215.816 123.15 215.661 123.614 215.565 123.923H220.35ZM221.8 128.36H214.144L212.346 133.667H210.896L213.158 126.968H222.815L224.99 133.667H223.54L221.8 128.36ZM235.428 111.047H236.82V128.94H246.419V130.332H235.428V111.047ZM231.455 111.047H232.847V132.275H246.419V133.667H231.455V111.047ZM252.329 111.047L256.766 121.052L261.232 111.047H262.769L256.795 124.474L250.792 111.047H252.329ZM257.984 125.837L264.973 111.047H266.481L259.376 126.098V133.667H257.984V125.837ZM254.011 126.069L246.877 111.047H248.385L255.403 125.75V133.667H254.011V126.069ZM272.526 125.025H277.92C279.853 125.025 281.371 124.455 282.473 123.314C283.575 122.174 284.126 120.637 284.126 118.703C284.126 117.485 283.875 116.412 283.372 115.484C282.869 114.537 282.164 113.793 281.255 113.251C280.346 112.71 279.264 112.439 278.007 112.439H270.032V133.667H268.64V111.047H278.007C279.534 111.047 280.859 111.376 281.98 112.033C283.101 112.691 283.971 113.599 284.59 114.759C285.209 115.9 285.518 117.215 285.518 118.703C285.518 121.081 284.841 122.966 283.488 124.358C282.135 125.731 280.279 126.417 277.92 126.417H273.918V133.667H272.526V125.025ZM272.439 114.092H276.818C278.191 114.092 279.331 114.469 280.24 115.223C281.168 115.977 281.632 117.147 281.632 118.732C281.632 119.776 281.419 120.646 280.994 121.342C280.569 122.019 279.989 122.531 279.254 122.879C278.539 123.208 277.736 123.372 276.847 123.372H272.439V114.092ZM276.847 121.98C277.794 121.98 278.597 121.719 279.254 121.197C279.911 120.656 280.24 119.834 280.24 118.732C280.24 117.611 279.911 116.789 279.254 116.267C278.597 115.745 277.785 115.484 276.818 115.484H273.831V121.98H276.847ZM294.099 123.488C292.379 122.87 291.074 122.077 290.184 121.11C289.314 120.144 288.879 118.819 288.879 117.137C288.879 115.919 289.198 114.808 289.836 113.802C290.474 112.778 291.393 111.966 292.591 111.366C293.79 110.748 295.23 110.438 296.912 110.438C301.03 110.438 303.737 111.937 305.032 114.933L303.93 115.716C303.157 114.17 302.181 113.135 301.001 112.613C299.841 112.091 298.478 111.83 296.912 111.83C295.54 111.83 294.351 112.072 293.345 112.555C292.359 113.019 291.596 113.657 291.054 114.469C290.532 115.262 290.271 116.151 290.271 117.137C290.271 118.491 290.639 119.544 291.373 120.298C292.108 121.052 293.171 121.681 294.563 122.183L297.84 123.343C299.31 123.865 300.305 124.474 300.827 125.17C301.349 125.847 301.61 126.62 301.61 127.49C301.61 128.534 301.253 129.404 300.537 130.1C299.822 130.796 298.633 131.144 296.97 131.144C295.752 131.144 294.583 130.767 293.461 130.013C292.34 129.24 291.412 128.051 290.677 126.446L291.866 125.634C292.369 126.93 293.094 127.945 294.041 128.679C294.989 129.395 295.965 129.752 296.97 129.752C298.092 129.752 298.913 129.549 299.435 129.143C299.957 128.737 300.218 128.186 300.218 127.49C300.218 126.872 300.006 126.34 299.58 125.895C299.155 125.431 298.42 125.016 297.376 124.648L294.099 123.488ZM295.984 120.327C294.728 119.902 293.848 119.39 293.345 118.79C292.843 118.191 292.591 117.543 292.591 116.847C292.591 116.248 292.727 115.687 292.997 115.165C293.287 114.643 293.761 114.218 294.418 113.889C295.095 113.561 295.994 113.396 297.115 113.396C298.256 113.396 299.281 113.686 300.189 114.266C301.098 114.846 301.823 115.707 302.364 116.847L301.204 117.688C300.856 116.76 300.315 116.045 299.58 115.542C298.846 115.04 298.024 114.788 297.115 114.788C295.994 114.788 295.192 114.991 294.708 115.397C294.225 115.784 293.983 116.267 293.983 116.847C293.983 117.737 294.795 118.452 296.419 118.993L300.015 120.182C301.736 120.743 303.099 121.565 304.104 122.647C305.129 123.73 305.641 125.151 305.641 126.91C305.641 129.25 304.887 131.057 303.379 132.333C301.891 133.609 299.764 134.247 296.999 134.247C294.66 134.247 292.717 133.725 291.17 132.681C289.624 131.637 288.531 130.187 287.893 128.331L288.937 127.635C289.788 129.549 290.89 130.903 292.243 131.695C293.597 132.488 295.182 132.884 296.999 132.884C299.3 132.884 301.079 132.372 302.335 131.347C303.611 130.323 304.249 128.844 304.249 126.91C304.249 125.48 303.814 124.339 302.944 123.488C302.094 122.638 300.972 121.98 299.58 121.516L295.984 120.327ZM310.044 111.047H325.704V112.439H311.436V132.275H326.284V133.667H310.044V111.047ZM313.93 114.063H325.704V115.455H315.322V119.921H324.225V121.313H313.93V114.063ZM313.93 122.85H324.225V124.242H315.322V129.259H326.284V130.651H313.93V122.85Z" fill="white"/>
</svg>
