<svg width="400" height="176" viewBox="0 0 400 176" fill="none" xmlns="http://www.w3.org/2000/svg">
<path d="M0 0H400V176H0V0Z" fill="#1A1A1A"/>
<path d="M64.7368 61.0229H111.221L109.437 67.2485H89.7222L74.6147 120H67.5591L82.6665 67.2485H62.9521L64.7368 61.0229ZM118.277 61.0229H126.329L124.087 68.8672H116.036L118.277 61.0229ZM113.753 78.9941H120.56L108.814 120H102.007L113.753 78.9941ZM145.213 61.0229H152.269L135.376 120H128.321L145.213 61.0229ZM178.25 61.0229H187.09L154.095 89.1626L171.775 120H162.686L145.047 89.7437L178.25 61.0229ZM193.274 84.1821H204.065L200.994 94.9731H190.203L193.274 84.1821ZM222.12 61.0229H268.604L266.819 67.2485H247.105L231.998 120H224.942L240.049 67.2485H220.335L222.12 61.0229ZM284.334 79.2432C288.761 79.2432 291.943 79.9902 293.88 81.4844C295.817 82.9785 296.785 85.0952 296.785 87.8345C296.785 89.3563 296.495 91.1686 295.914 93.2715L288.235 120H283.421L282.923 116.265C278.772 119.308 274.553 120.83 270.264 120.83C267.027 120.83 264.426 119.986 262.461 118.298C260.525 116.583 259.556 114.466 259.556 111.948C259.556 111.118 259.681 110.26 259.93 109.375C260.483 107.41 261.41 105.709 262.71 104.27C264.039 102.804 265.547 101.628 267.234 100.742C268.95 99.8568 270.97 99.1512 273.294 98.6255C275.618 98.0998 277.929 97.7401 280.225 97.5464C282.522 97.3527 285.081 97.2559 287.903 97.2559L288.816 94.1431C289.259 92.6489 289.48 91.3623 289.48 90.2832C289.48 86.6862 286.852 84.8877 281.595 84.8877C278.938 84.8877 275.189 85.4826 270.347 86.6724L270.472 81.7749C275.424 80.0871 280.045 79.2432 284.334 79.2432ZM286.451 102.402H283.96C282.411 102.402 281.055 102.43 279.893 102.485C278.759 102.541 277.389 102.693 275.784 102.942C274.207 103.191 272.865 103.537 271.758 103.979C270.679 104.422 269.669 105.086 268.729 105.972C267.788 106.829 267.151 107.853 266.819 109.043C266.709 109.403 266.653 109.818 266.653 110.288C266.653 111.727 267.304 112.958 268.604 113.982C269.932 114.978 271.62 115.476 273.667 115.476C277.154 115.476 280.543 114.134 283.836 111.45L286.451 102.402ZM324.759 61.0229H331.814L314.922 120H307.867L324.759 61.0229ZM357.796 61.0229H366.636L333.641 89.1626L351.321 120H342.232L324.593 89.7437L357.796 61.0229Z" fill="#FAFAFA"/>
</svg>
